<svg width="17" height="18" fill="none" xmlns="http://www.w3.org/2000/svg"><path d="m7.167 0 6.081 1.94c.17.054.318.162.423.309a.863.863 0 0 1 .162.504v1.502H15.5c.221 0 .433.09.59.25a.86.86 0 0 1 .243.601v1.702H5.5V5.106a.86.86 0 0 1 .244-.602.825.825 0 0 1 .59-.249h5.833v-.877l-5-1.596-5 1.596V9.68c0 .521.117 1.035.342 1.503.225.467.552.876.956 1.194l.158.116 3.544 2.469 3.151-2.196H6.333a.825.825 0 0 1-.589-.25.86.86 0 0 1-.244-.601V8.51h10.833v3.404a.86.86 0 0 1-.244.602.825.825 0 0 1-.589.249h-2.683a5.037 5.037 0 0 1-1.167 1.133L7.167 17.02l-4.484-3.121a5.072 5.072 0 0 1-1.604-1.834A5.193 5.193 0 0 1 .5 9.68V2.753c0-.181.057-.358.162-.504a.834.834 0 0 1 .423-.308L7.167 0Z" fill="#52006A"/></svg>