<svg width="29" height="30" viewBox="0 0 29 30" fill="none" xmlns="http://www.w3.org/2000/svg">
<path d="M25.2174 22.1053H29V25.2632H25.2174V30H22.6957V25.2632H18.913V22.1053H22.6957V17.3684H25.2174V22.1053ZM22.6957 6.31579V3.15789H2.52174V6.31579H22.6957ZM22.6957 12.6316H2.52174V22.1053H16.3913V25.2632H2.52174C1.85293 25.2632 1.21152 24.9305 0.7386 24.3382C0.265683 23.746 0 22.9428 0 22.1053V3.15789C0 1.40526 1.12217 0 2.52174 0H22.6957C23.3645 0 24.0059 0.332706 24.4788 0.924926C24.9517 1.51715 25.2174 2.32037 25.2174 3.15789V14.2105H22.6957V12.6316Z" fill="#52006A"/>
</svg>
