<svg width="68" height="29" viewBox="0 0 68 29" fill="none" xmlns="http://www.w3.org/2000/svg">
<path d="M41.387 3.57975L25.1811 3.69569L27.2795 25.3652L43.4855 25.2493L41.387 3.57975Z" fill="#FF5F00"/>
<path d="M25.7449 14.5071C25.3033 10.1068 27.7804 6.18313 31.9363 3.62575C28.5114 1.81264 24.3094 0.732691 19.8468 0.765082C9.27491 0.841818 1.34 7.06428 2.10419 14.6787C2.86838 22.293 12.0398 28.3913 22.6117 28.3146C27.0743 28.2822 31.0535 27.1429 34.1098 25.2827C29.4508 22.8276 26.1865 18.9073 25.7449 14.5071Z" fill="#EB001B"/>
<path d="M66.5462 14.2681C67.3141 21.8823 59.3821 28.1043 48.8102 28.1807C44.3477 28.2129 40.1451 27.1328 36.7193 25.3197C40.9271 22.7621 43.3492 18.8391 42.9055 14.4389C42.4617 10.0388 39.1994 6.15678 34.5353 3.66333C37.5908 1.80334 41.5695 0.664183 46.032 0.631944C56.604 0.555568 65.7822 6.69224 66.5462 14.2681Z" fill="#F79E1B"/>
</svg>
