<svg width="29" height="30" viewBox="0 0 29 30" fill="none" xmlns="http://www.w3.org/2000/svg">
<path d="M2.41667 3H7.25V0H2.41667C1.77573 0 1.16104 0.31607 0.707825 0.87868C0.254612 1.44129 0 2.20435 0 3L0 9H2.41667V3ZM26.5833 0H21.75V3H26.5833V9H29V3C29 2.20435 28.7454 1.44129 28.2922 0.87868C27.839 0.31607 27.2243 0 26.5833 0ZM2.41667 21H0V27C0 27.7957 0.254612 28.5587 0.707825 29.1213C1.16104 29.6839 1.77573 30 2.41667 30H7.25V27H2.41667V21ZM26.5833 27H21.75V30H26.5833C27.2243 30 27.839 29.6839 28.2922 29.1213C28.7454 28.5587 29 27.7957 29 27V21H26.5833V27ZM4.83333 9V21C4.83333 21.7957 5.08795 22.5587 5.54116 23.1213C5.99437 23.6839 6.60906 24 7.25 24H21.75C22.3909 24 23.0056 23.6839 23.4588 23.1213C23.9121 22.5587 24.1667 21.7957 24.1667 21V9C24.1667 8.20435 23.9121 7.44129 23.4588 6.87868C23.0056 6.31607 22.3909 6 21.75 6H7.25C6.60906 6 5.99437 6.31607 5.54116 6.87868C5.08795 7.44129 4.83333 8.20435 4.83333 9ZM7.25 21V15H21.75V21H7.25ZM21.75 9V12H7.25V9H21.75Z" fill="#52006A"/>
</svg>
