<svg width="17" height="18" viewBox="0 0 17 18" fill="none" xmlns="http://www.w3.org/2000/svg">
<path d="M7.16667 0L13.2483 1.94028C13.418 1.99436 13.5662 2.10238 13.6714 2.24859C13.7767 2.3948 13.8334 2.57153 13.8333 2.75299V4.25501H15.5C15.721 4.25501 15.933 4.34466 16.0893 4.50426C16.2455 4.66385 16.3333 4.88031 16.3333 5.10601V6.80801H5.5V5.10601C5.5 4.88031 5.5878 4.66385 5.74408 4.50426C5.90036 4.34466 6.11232 4.25501 6.33333 4.25501H12.1667V3.37847L7.16667 1.782L2.16667 3.37847V9.67929C2.16655 10.2003 2.28354 10.7144 2.50864 11.1819C2.73373 11.6495 3.06092 12.058 3.465 12.3761L3.6225 12.4918L7.16667 14.9606L10.3183 12.765H6.33333C6.11232 12.765 5.90036 12.6754 5.74408 12.5158C5.5878 12.3562 5.5 12.1397 5.5 11.914V8.51001H16.3333V11.914C16.3333 12.1397 16.2455 12.3562 16.0893 12.5158C15.933 12.6754 15.721 12.765 15.5 12.765L12.8167 12.7659C12.4942 13.1999 12.1025 13.5828 11.65 13.8977L7.16667 17.02L2.68333 13.8986C2.01044 13.43 1.45979 12.8008 1.07928 12.0654C0.698774 11.3301 0.499916 10.511 0.5 9.67929V2.75299C0.500101 2.57168 0.556906 2.39513 0.662135 2.2491C0.767365 2.10306 0.915518 1.99516 1.085 1.94113L7.16667 0Z" fill="#52006A"/>
</svg>
