<svg width="67" height="29" viewBox="0 0 67 29" fill="none" xmlns="http://www.w3.org/2000/svg">
<path d="M62.4469 0.880295H58.2458C56.9757 0.880295 55.9986 1.40831 55.4124 3.12435L47.4009 27.809H53.0676C53.0676 27.809 54.0446 24.5089 54.24 23.7169C54.8262 23.7169 60.3952 23.7169 61.1768 23.7169C61.3722 24.6409 61.8607 27.677 61.8607 27.677H66.9412L62.4469 0.880295ZM55.8032 18.1727C56.2918 16.5887 57.9527 10.6485 57.9527 10.6485C57.9527 10.7805 58.4412 9.0645 58.6366 8.14047L59.0274 10.5165C59.0274 10.5165 60.1021 16.9847 60.2975 18.3047H55.8032V18.1727Z" fill="#062574"/>
<path d="M47.7918 18.9648C47.7918 24.509 44.0791 28.205 38.3147 28.205C35.8722 28.205 33.5274 27.545 32.2573 26.753L33.0389 20.6809L33.7228 21.0769C35.4814 22.1329 36.6538 22.5289 38.8032 22.5289C40.3665 22.5289 42.0274 21.7369 42.0274 19.8888C42.0274 18.7008 41.3435 17.9088 39.1941 16.5888C37.1423 15.2687 34.4067 13.1567 34.4067 9.32859C34.4067 4.04846 38.217 0.484375 43.5906 0.484375C45.6423 0.484375 47.401 1.01239 48.4757 1.6724L47.6941 7.48055L47.3033 6.95253C46.3262 6.42452 45.0561 5.89651 43.1998 5.89651C41.1481 6.02851 40.1711 7.21654 40.1711 8.27256C40.1711 9.46059 41.3435 10.3846 43.1998 11.5726C46.3262 13.5527 47.7918 15.7967 47.7918 18.9648Z" fill="#062574"/>
<path d="M0.113525 1.14529L0.211227 0.617279H8.61354C9.78596 0.617279 10.6653 1.14529 10.9584 2.86133L12.8147 14.7416C10.9584 8.40547 6.65951 3.25734 0.113525 1.14529Z" fill="#F9B50B"/>
<path d="M24.6366 0.881362L16.1366 27.678H10.3722L5.48712 5.23747C9.00437 8.27354 11.9354 13.0257 13.0101 16.3257L13.5963 19.0978L18.8722 0.749359H24.6366V0.881362Z" fill="#062574"/>
<path d="M26.8837 0.749359H32.2573L28.8377 27.678H23.4642L26.8837 0.749359Z" fill="#062574"/>
</svg>
